<svg xmlns="http://www.w3.org/2000/svg" viewBox="0 0 24 24">
  <path d="M2.25 11.535c0-3.407 1.847-6.554 4.844-8.258a9.822 9.822 0 019.687 0c2.997 1.704 4.844 4.851 4.844 8.258 0 5.266-4.337 9.535-9.687 9.535S2.25 16.8 2.25 11.535z" fill="#FF9D0B"/>
  <path d="M11.938 20.086c4.797 0 8.687-3.829 8.687-8.551 0-4.722-3.89-8.55-8.687-8.55-4.798 0-8.688 3.828-8.688 8.55 0 4.722 3.89 8.551 8.688 8.551z" fill="#FFD21E"/>
  <path d="M11.875 15.113c2.457 0 3.25-2.156 3.25-3.263 0-.576-.393-.394-1.023-.089-.582.283-1.365.675-2.224.675-1.798 0-3.25-1.693-3.25-.586 0 1.107.79 3.263 3.25 3.263h-.003z" fill="#FF323D"/>
  <path d="M14.76 9.21c.32.108.445.753.767.585.447-.233.707-.708.659-1.204a1.235 1.235 0 00-.879-1.059 1.262 1.262 0 00-1.33.394c-.322.384-.377.92-.14 1.36.153.283.638-.177.925-.079l-.002.003zm-5.887 0c-.32.108-.448.753-.768.585a1.226 1.226 0 01-.658-1.204c.048-.495.395-.913.878-1.059a1.262 1.262 0 011.33.394c.322.384.377.92.14 1.36-.152.283-.64-.177-.925-.079l.003.003z" fill="#3A3B45"/>
  <path d="M17.812 10.366a.806.806 0 00.813-.8c0-.441-.364-.8-.813-.8a.806.806 0 00-.812.8c0 .442.364.8.812.8zm-11.624 0a.806.806 0 00.812-.8c0-.441-.364-.8-.812-.8a.806.806 0 00-.813.8c0 .442.364.8.813.8z" fill="#3A3B45"/>
</svg>
