<svg width="1287" height="561" viewBox="0 0 1287 561" fill="none" xmlns="http://www.w3.org/2000/svg">
<path d="M0 525.645V131.366C0 124.309 2.70084 117.339 8.05896 112.765C12.4152 109.062 17.2941 107.189 22.6522 107.189H144.234C151.291 107.189 158.261 109.672 163.14 114.769C167.104 118.951 169.064 123.96 169.064 129.841V406.341C169.064 413.572 174.901 419.41 182.133 419.41H375.983C383.04 419.41 390.054 421.893 394.889 426.989C398.81 431.171 400.814 436.181 400.814 442.062V535.752C400.814 543.81 397.329 551.739 390.664 556.269C386.743 558.926 382.3 560.233 377.29 560.233L34.8931 560.451C15.5952 560.495 0 544.9 0 525.645Z" fill="black"/>
<path d="M634.127 560.419C595.892 560.332 562.361 554.494 533.446 542.82C504.531 531.145 482.104 512.108 466.122 485.623C450.141 459.181 442.215 424.157 442.302 380.595L442.564 240.325L373.344 240.195C367.16 240.195 361.978 238.016 357.754 233.617C353.53 229.217 351.44 223.902 351.484 217.499L351.658 129.504C351.658 123.1 353.792 117.742 358.016 113.386C362.24 109.029 367.422 106.851 373.605 106.895L442.825 107.026L442.999 22.6087C442.999 16.2051 445.133 10.8469 449.357 6.49073C453.581 2.13454 458.763 0 464.947 0L587.14 0.21781C593.323 0.21781 598.505 2.39591 602.729 6.79567C606.953 11.1954 609.044 16.5535 609 22.9136L608.826 107.331L715.037 107.548C721.221 107.548 726.403 109.726 730.627 114.126C734.851 118.526 736.941 123.884 736.898 130.244L736.723 218.239C736.723 224.643 734.59 230.001 730.366 234.357C726.141 238.713 720.916 240.892 714.776 240.848L608.565 240.63L608.347 366.089C608.347 382.947 611.656 396.146 618.406 405.73C625.156 415.314 635.781 420.149 650.413 420.149L721.221 420.28C727.404 420.28 732.586 422.458 736.81 426.858C741.035 431.257 743.125 436.616 743.081 442.976L742.907 537.941C742.907 544.344 740.773 549.702 736.549 554.059C732.325 558.415 727.099 560.593 720.959 560.549L634.17 560.375L634.127 560.419Z" fill="black"/>
<path d="M811.125 560.273C805.514 560.273 800.903 558.225 797.292 554.174C793.638 550.123 791.854 545.462 791.854 540.234C791.854 538.492 792.115 536.444 792.681 534.135C793.246 531.827 794.377 529.474 796.03 527.166L930.277 331.659C932.278 328.741 932.321 324.864 930.364 321.902L809.472 140.379C808.341 138.636 807.384 136.589 806.514 134.28C805.688 131.971 805.253 129.619 805.253 127.31C805.253 122.083 807.21 117.422 811.125 113.37C815.041 109.319 819.521 107.272 824.568 107.272H952.941C960.771 107.272 966.644 109.145 970.559 112.935C974.474 116.725 977.259 120.035 978.955 122.954L1034.64 206.985C1038.07 212.169 1045.69 212.169 1049.12 206.985L1104.81 122.954C1107.02 120.035 1109.98 116.725 1113.59 112.935C1117.2 109.145 1122.95 107.272 1130.78 107.272H1253.28C1258.32 107.272 1262.76 109.319 1266.72 113.37C1270.63 117.422 1272.59 121.778 1272.59 126.439C1272.59 129.358 1272.29 131.971 1271.77 134.28C1271.2 136.589 1270.07 138.636 1268.42 140.379L1145.13 321.858C1143.09 324.864 1143.13 328.784 1145.22 331.747L1281.86 527.209C1283.55 529.518 1284.64 531.87 1285.21 534.179C1285.77 536.488 1286.03 538.535 1286.03 540.278C1286.03 545.505 1284.08 550.166 1280.16 554.218C1276.25 558.269 1271.77 560.316 1266.72 560.316H1132.47C1125.21 560.316 1119.9 558.574 1116.55 555.089C1113.2 551.604 1110.37 548.424 1108.16 545.505L1045.56 454.635C1042.12 449.669 1034.81 449.625 1031.33 454.504L966.383 545.462C964.686 548.38 962.033 551.56 958.422 555.045C954.768 558.53 949.33 560.273 942.066 560.273H811.125Z" fill="black"/>
</svg>
